<?xml version="1.0" encoding="UTF-8" standalone="no"?>
<!-- Created with Inkscape (http://www.inkscape.org/) -->

<svg
   xmlns:dc="http://purl.org/dc/elements/1.1/"
   xmlns:cc="http://creativecommons.org/ns#"
   xmlns:rdf="http://www.w3.org/1999/02/22-rdf-syntax-ns#"
   xmlns:svg="http://www.w3.org/2000/svg"
   xmlns="http://www.w3.org/2000/svg"
   xmlns:sodipodi="http://sodipodi.sourceforge.net/DTD/sodipodi-0.dtd"
   xmlns:inkscape="http://www.inkscape.org/namespaces/inkscape"
   width="20"
   height="20"
   id="svg2"
   version="1.1"
   inkscape:version="0.48.3.1 r9886"
   sodipodi:docname="goal.svg"
   inkscape:export-filename="/home/paul/src/boop/goal.png"
   inkscape:export-xdpi="90"
   inkscape:export-ydpi="90">
  <defs
     id="defs4" />
  <sodipodi:namedview
     id="base"
     pagecolor="#ffffff"
     bordercolor="#666666"
     borderopacity="1.0"
     inkscape:pageopacity="0.0"
     inkscape:pageshadow="2"
     inkscape:zoom="15.839192"
     inkscape:cx="6.8610609"
     inkscape:cy="13.051352"
     inkscape:document-units="px"
     inkscape:current-layer="layer1"
     showgrid="false"
     inkscape:window-width="1317"
     inkscape:window-height="744"
     inkscape:window-x="49"
     inkscape:window-y="24"
     inkscape:window-maximized="1" />
  <metadata
     id="metadata7">
    <rdf:RDF>
      <cc:Work
         rdf:about="">
        <dc:format>image/svg+xml</dc:format>
        <dc:type
           rdf:resource="http://purl.org/dc/dcmitype/StillImage" />
        <dc:title></dc:title>
      </cc:Work>
    </rdf:RDF>
  </metadata>
  <g
     inkscape:label="Layer 1"
     inkscape:groupmode="layer"
     id="layer1"
     transform="translate(0,-1032.3622)">
    <path
       sodipodi:type="arc"
       style="opacity:1;fill:#f20300;fill-opacity:1;stroke:none"
       id="path2985"
       sodipodi:cx="10.953842"
       sodipodi:cy="10.214148"
       sodipodi:rx="9.1229401"
       sodipodi:ry="8.901969"
       d="m 20.076782,10.214148 a 9.1229401,8.901969 0 1 1 -18.2458799,0 9.1229401,8.901969 0 1 1 18.2458799,0 z"
       transform="matrix(0.98652407,0,0,1.0110123,-0.80622892,1032.0356)" />
    <path
       sodipodi:type="arc"
       style="fill:#ffffff;fill-opacity:1;stroke:none"
       id="path2985-5"
       sodipodi:cx="10.953842"
       sodipodi:cy="10.214148"
       sodipodi:rx="9.1229401"
       sodipodi:ry="8.901969"
       d="m 20.076782,10.214148 a 9.1229401,8.901969 0 1 1 -18.2458799,0 9.1229401,8.901969 0 1 1 18.2458799,0 z"
       transform="matrix(0.7672965,0,0,0.78634289,1.5951552,1034.3304)" />
    <path
       sodipodi:type="arc"
       style="fill:#f20300;fill-opacity:1;stroke:none"
       id="path2985-2"
       sodipodi:cx="10.953842"
       sodipodi:cy="10.214148"
       sodipodi:rx="9.1229401"
       sodipodi:ry="8.901969"
       d="m 20.076782,10.214148 a 9.1229401,8.901969 0 1 1 -18.2458799,0 9.1229401,8.901969 0 1 1 18.2458799,0 z"
       transform="matrix(0.54806893,0,0,0.56167349,3.9965394,1036.6252)" />
    <path
       sodipodi:type="arc"
       style="fill:#ffffff;fill-opacity:1;stroke:none"
       id="path2985-5-8"
       sodipodi:cx="10.953842"
       sodipodi:cy="10.214148"
       sodipodi:rx="9.1229401"
       sodipodi:ry="8.901969"
       d="m 20.076782,10.214148 a 9.1229401,8.901969 0 1 1 -18.2458799,0 9.1229401,8.901969 0 1 1 18.2458799,0 z"
       transform="matrix(0.32884136,0,0,0.3370041,6.3979236,1038.92)" />
  </g>
</svg>
